<?xml version="1.0" encoding="UTF-8" standalone="no"?>
<!-- Created with Inkscape (http://www.inkscape.org/) -->

<svg
   xmlns:dc="http://purl.org/dc/elements/1.1/"
   xmlns:cc="http://creativecommons.org/ns#"
   xmlns:rdf="http://www.w3.org/1999/02/22-rdf-syntax-ns#"
   xmlns:svg="http://www.w3.org/2000/svg"
   xmlns="http://www.w3.org/2000/svg"
   xmlns:sodipodi="http://sodipodi.sourceforge.net/DTD/sodipodi-0.dtd"
   xmlns:inkscape="http://www.inkscape.org/namespaces/inkscape"
   width="128"
   height="128"
   id="svg2"
   version="1.1"
   inkscape:version="0.48.2 r9819"
   sodipodi:docname="carica-bitbucket.svg"
   inkscape:export-filename="C:\Users\weinert\Pictures\carica-leaf-bitbucket.png"
   inkscape:export-xdpi="90"
   inkscape:export-ydpi="90"
   viewBox="0 0 128 128">
  <defs
     id="defs4">
    <filter
       id="filter3808"
       inkscape:collect="always"
       color-interpolation-filters="sRGB">
      <feGaussianBlur
         id="feGaussianBlur3810"
         stdDeviation="0.54022141"
         inkscape:collect="always" />
    </filter>
    <filter
       inkscape:collect="always"
       id="filter3866"
       color-interpolation-filters="sRGB">
      <feGaussianBlur
         inkscape:collect="always"
         stdDeviation="0.4401067"
         id="feGaussianBlur3868" />
    </filter>
  </defs>
  <sodipodi:namedview
     id="base"
     pagecolor="#ffffff"
     bordercolor="#666666"
     borderopacity="1.0"
     inkscape:pageopacity="0.0"
     inkscape:pageshadow="2"
     inkscape:zoom="7.1875"
     inkscape:cx="64"
     inkscape:cy="64"
     inkscape:document-units="px"
     inkscape:current-layer="layer1"
     showgrid="true"
     inkscape:window-width="1050"
     inkscape:window-height="1658"
     inkscape:window-x="-8"
     inkscape:window-y="-8"
     inkscape:window-maximized="1">
    <inkscape:grid
       type="xygrid"
       id="grid3090"
       empspacing="5"
       visible="true"
       enabled="true"
       snapvisiblegridlinesonly="true" />
  </sodipodi:namedview>
  <metadata
     id="metadata7">
    <rdf:RDF>
      <cc:Work
         rdf:about="">
        <dc:format>image/svg+xml</dc:format>
        <dc:type
           rdf:resource="http://purl.org/dc/dcmitype/StillImage" />
        <dc:title></dc:title>
      </cc:Work>
    </rdf:RDF>
  </metadata>
  <g
     inkscape:label="Ebene 1"
     inkscape:groupmode="layer"
     id="layer1"
     transform="translate(0,-924.3622)">
    <path
       sodipodi:type="arc"
       style="opacity:1;fill:#000000;fill-opacity:1;stroke:none"
       id="path3870"
       sodipodi:cx="64"
       sodipodi:cy="62"
       sodipodi:rx="64"
       sodipodi:ry="64"
       d="M 128,62 A 64,64 0 1 1 0,62 64,64 0 1 1 128,62 z"
       transform="translate(0,926.3622)" />
    <g
       id="g3872"
       transform="matrix(2.2441688,0,0,2.2441688,5.4750662,-1326.7675)">
      <path
         style="opacity:0.5;fill:#2e3436;stroke:none;filter:url(#filter3866)"
         d="m 30.347411,1007.2686 c -2.251498,3.7101 -11.107598,6.4771 -9.870479,9.4681 -1.282812,0.061 -2.110609,-0.4797 -2.584655,-1.4967 -1.772176,3.4257 -0.597165,6.7635 2.736306,9.6526 0.08217,-0.1576 0.145056,-0.3032 0.145056,-0.3032 -1.578159,-3.4663 -2.291343,-6.2424 -2.901143,-8.9341 0.93476,2.8168 1.939478,5.9822 3.349501,8.2286 4.374291,-10.1771 5.900773,-10.8647 8.597933,-15.0395 -2.942073,5.0674 -6.178744,10.0052 -7.813305,15.633 6.834681,-2.6194 13.028634,-6.743 19.543153,-9.2637 -6.805443,3.029 -13.040639,7.296 -19.767332,10.3845 l 5.248432,5.3604 c 4.599762,-0.8765 9.792347,-1.0128 14.74308,-1.4505 -4.690454,0.7651 -9.492178,0.8628 -14.182632,2.1559 l 12.877118,13.5825 0,0.012 -13.582624,-12.8833 c -1.293181,4.6903 -1.397401,9.4919 -2.162671,14.1823 0.437781,-4.9506 0.580671,-10.1432 1.457166,-14.7429 l -5.360521,-5.2483 c -3.088578,6.7266 -7.362217,12.9616 -10.391368,19.767 2.520892,-6.5144 6.651094,-12.7083 9.270472,-19.5427 -5.627864,1.6344 -10.5657058,4.8777 -15.6332079,7.8197 4.1749228,-2.6971 4.8625093,-4.2302 15.0397919,-8.6045 -2.246461,-1.4099 -5.411914,-2.4146 -8.228697,-3.3493 2.691609,0.6097 5.467904,1.3295 8.934203,2.9076 0,0 0.181681,-0.074 0.356049,-0.1714 -2.88995,-3.3364 -6.225759,-4.5947 -9.652894,-2.822 1.017031,0.474 1.551459,1.3085 1.490133,2.5913 -2.9909133,-1.2371 -5.7515351,7.6122 -9.4616857,9.8636 4.4252749,0.2106 7.3752333,-2.8377 10.9584117,-3.0922 -8.9044153,3.5504 -3.9956723,12.545 -3.9824809,19.3251 2.1237929,-4.5888 11.7569879,-10.3472 10.6551099,-20.3207 0.273369,1.3644 0.620204,2.416 1.800026,2.9406 -1.402171,5.9029 0.963009,10.5073 3.38247,15.0923 1.328726,-10.5647 9.537356,0.5366 19.220071,0.3956 0.972639,-9.1281 -11.170755,-18.1425 -0.290113,-19.2791 -4.585165,-2.4194 -9.189569,-4.7846 -15.092538,-3.3825 -0.524628,-1.1797 -1.569612,-1.5265 -2.93411,-1.7999 9.973709,1.1019 15.725626,-8.5311 20.314593,-10.6549 -6.780253,-0.014 -15.76851,-4.9217 -19.318973,3.9824 0.254627,-3.5831 3.302916,-6.533 3.092354,-10.9581 z"
         id="path3092"
         inkscape:connector-curvature="0" />
      <path
         inkscape:connector-curvature="0"
         id="path2998"
         d="m 29.771213,1006.5646 c -2.251498,3.7101 -11.107598,6.4771 -9.870479,9.4681 -1.282812,0.061 -2.110609,-0.4797 -2.584655,-1.4967 -1.772176,3.4257 -0.597165,6.7635 2.736306,9.6526 0.08217,-0.1576 0.145056,-0.3032 0.145056,-0.3032 -1.578159,-3.4663 -2.291343,-6.2424 -2.901143,-8.9341 0.93476,2.8168 1.939478,5.9822 3.349501,8.2286 4.374291,-10.1771 5.900773,-10.8647 8.597933,-15.0395 -2.942073,5.0674 -6.178744,10.0052 -7.813305,15.633 6.834681,-2.6194 13.028634,-6.743 19.543153,-9.2637 -6.805443,3.029 -13.040639,7.296 -19.767332,10.3845 l 5.248432,5.3604 c 4.599762,-0.8765 9.792347,-1.0128 14.74308,-1.4505 -4.690454,0.7651 -9.492178,0.8628 -14.182632,2.1559 l 12.877118,13.5825 0,0.012 -13.582624,-12.8833 c -1.293181,4.6903 -1.397401,9.4919 -2.162671,14.1823 0.437781,-4.9506 0.580671,-10.1432 1.457166,-14.7429 l -5.360521,-5.2483 c -3.088578,6.7266 -7.362217,12.9616 -10.3913676,19.767 2.5208916,-6.5144 6.6510936,-12.7083 9.2704716,-19.5427 -5.627864,1.6344 -10.5657031,4.8777 -15.6332052,7.8197 4.1749228,-2.6971 4.8625093,-4.2302 15.0397892,-8.6045 -2.246461,-1.4099 -5.411914,-2.4146 -8.228697,-3.3493 2.691609,0.6097 5.467904,1.3295 8.934203,2.9076 0,0 0.181681,-0.074 0.356049,-0.1714 -2.88995,-3.3364 -6.225759,-4.5947 -9.6528942,-2.822 1.0170312,0.474 1.5514592,1.3085 1.4901332,2.5913 -2.9909106,-1.2371 -5.7515324,7.6122 -9.461683,9.8636 4.4252749,0.2106 7.3752334,-2.8377 10.958409,-3.0922 -8.9044126,3.5504 -3.9956696,12.545 -3.9824782,19.3251 2.1237902,-4.5888 11.7569852,-10.3472 10.6551072,-20.3207 0.273369,1.3644 0.620204,2.416 1.800026,2.9406 -1.402171,5.9029 0.963009,10.5073 3.38247,15.0923 1.328726,-10.5647 9.537356,0.5366 19.220071,0.3956 0.972639,-9.1281 -11.170755,-18.1425 -0.290113,-19.2791 -4.585165,-2.4194 -9.189569,-4.7846 -15.092538,-3.3825 -0.524628,-1.1797 -1.569612,-1.5265 -2.93411,-1.7999 9.973709,1.1019 15.725626,-8.5311 20.314593,-10.6549 -6.780253,-0.014 -15.76851,-4.9217 -19.318973,3.9824 0.254627,-3.5831 3.302916,-6.533 3.092354,-10.9581 z"
         style="fill:#4e9a06;stroke:none" />
    </g>
  </g>
</svg>
