<?xml version="1.0" encoding="UTF-8" standalone="no"?>
<!-- Created with Inkscape (http://www.inkscape.org/) -->

<svg
   xmlns:dc="http://purl.org/dc/elements/1.1/"
   xmlns:cc="http://creativecommons.org/ns#"
   xmlns:rdf="http://www.w3.org/1999/02/22-rdf-syntax-ns#"
   xmlns:svg="http://www.w3.org/2000/svg"
   xmlns="http://www.w3.org/2000/svg"
   xmlns:sodipodi="http://sodipodi.sourceforge.net/DTD/sodipodi-0.dtd"
   xmlns:inkscape="http://www.inkscape.org/namespaces/inkscape"
   width="80"
   height="68"
   id="svg2"
   version="1.1"
   inkscape:version="0.48.2 r9819"
   sodipodi:docname="wabe.svg"
   inkscape:export-filename="C:\Users\weinert\Pictures\wabe.png"
   inkscape:export-xdpi="90"
   inkscape:export-ydpi="90">
  <defs
     id="defs4" />
  <sodipodi:namedview
     id="base"
     pagecolor="#ffffff"
     bordercolor="#666666"
     borderopacity="1.0"
     inkscape:pageopacity="0.0"
     inkscape:pageshadow="2"
     inkscape:zoom="5.2118227"
     inkscape:cx="53.115073"
     inkscape:cy="52.984513"
     inkscape:document-units="px"
     inkscape:current-layer="layer1"
     showgrid="false"
     showguides="true"
     inkscape:guide-bbox="true"
     inkscape:window-width="1050"
     inkscape:window-height="1658"
     inkscape:window-x="-8"
     inkscape:window-y="-8"
     inkscape:window-maximized="1">
    <sodipodi:guide
       orientation="0,1"
       position="-24.079868,68.642013"
       id="guide3126" />
    <sodipodi:guide
       orientation="0,1"
       position="0,0"
       id="guide3900" />
    <sodipodi:guide
       orientation="1,0"
       position="0.19187146,89.028355"
       id="guide3902" />
    <sodipodi:guide
       orientation="1,0"
       position="80,-46.433"
       id="guide3904" />
  </sodipodi:namedview>
  <metadata
     id="metadata7">
    <rdf:RDF>
      <cc:Work
         rdf:about="">
        <dc:format>image/svg+xml</dc:format>
        <dc:type
           rdf:resource="http://purl.org/dc/dcmitype/StillImage" />
        <dc:title></dc:title>
      </cc:Work>
    </rdf:RDF>
  </metadata>
  <g
     inkscape:label="Ebene 1"
     inkscape:groupmode="layer"
     id="layer1"
     transform="translate(0,-984.36218)">
    <path
       transform="matrix(0.95084467,0,0,0.95225255,-2.3906049,1015.2527)"
       d="M 44.056202,26.604821 23.54812,38.445168 3.040039,26.604821 3.0400391,2.9241284 23.548121,-8.9162178 44.056202,2.9241286 z"
       inkscape:randomized="0"
       inkscape:rounded="0"
       inkscape:flatsided="true"
       sodipodi:arg2="1.0471976"
       sodipodi:arg1="0.52359878"
       sodipodi:r2="23.680693"
       sodipodi:r1="23.680693"
       sodipodi:cy="14.764475"
       sodipodi:cx="23.54812"
       sodipodi:sides="6"
       id="path3002"
       style="fill:none;stroke:#000000;stroke-width:1.0509187;stroke-opacity:1"
       sodipodi:type="star" />
    <path
       transform="matrix(0.95084467,0,0,0.95225255,37.609395,1015.2527)"
       d="M 44.056202,26.604821 23.54812,38.445168 3.040039,26.604821 3.0400391,2.9241284 23.548121,-8.9162178 44.056202,2.9241286 z"
       inkscape:randomized="0"
       inkscape:rounded="0"
       inkscape:flatsided="true"
       sodipodi:arg2="1.0471976"
       sodipodi:arg1="0.52359878"
       sodipodi:r2="23.680693"
       sodipodi:r1="23.680693"
       sodipodi:cy="14.764475"
       sodipodi:cx="23.54812"
       sodipodi:sides="6"
       id="path3002-0"
       style="fill:none;stroke:#000000;stroke-width:1.0509187;stroke-opacity:1"
       sodipodi:type="star" />
    <path
       transform="matrix(0.95084467,0,0,0.95225255,-22.390605,980.64893)"
       d="M 44.056202,26.604821 23.54812,38.445168 3.040039,26.604821 3.0400391,2.9241284 23.548121,-8.9162178 44.056202,2.9241286 z"
       inkscape:randomized="0"
       inkscape:rounded="0"
       inkscape:flatsided="true"
       sodipodi:arg2="1.0471976"
       sodipodi:arg1="0.52359878"
       sodipodi:r2="23.680693"
       sodipodi:r1="23.680693"
       sodipodi:cy="14.764475"
       sodipodi:cx="23.54812"
       sodipodi:sides="6"
       id="path3002-1"
       style="fill:none;stroke:#000000;stroke-width:1.0509187;stroke-opacity:1"
       sodipodi:type="star" />
    <path
       transform="matrix(0.95084467,0,0,0.95225255,17.609397,980.64893)"
       d="M 44.056202,26.604821 23.54812,38.445168 3.040039,26.604821 3.0400391,2.9241284 23.548121,-8.9162178 44.056202,2.9241286 z"
       inkscape:randomized="0"
       inkscape:rounded="0"
       inkscape:flatsided="true"
       sodipodi:arg2="1.0471976"
       sodipodi:arg1="0.52359878"
       sodipodi:r2="23.680693"
       sodipodi:r1="23.680693"
       sodipodi:cy="14.764475"
       sodipodi:cx="23.54812"
       sodipodi:sides="6"
       id="path3002-0-5"
       style="fill:none;stroke:#000000;stroke-width:1.0509187;stroke-opacity:1"
       sodipodi:type="star" />
    <path
       transform="matrix(0.95084467,0,0,0.95225255,57.609397,980.74893)"
       d="M 44.056202,26.604821 23.54812,38.445168 3.040039,26.604821 3.0400391,2.9241284 23.548121,-8.9162178 44.056202,2.9241286 z"
       inkscape:randomized="0"
       inkscape:rounded="0"
       inkscape:flatsided="true"
       sodipodi:arg2="1.0471976"
       sodipodi:arg1="0.52359878"
       sodipodi:r2="23.680693"
       sodipodi:r1="23.680693"
       sodipodi:cy="14.764475"
       sodipodi:cx="23.54812"
       sodipodi:sides="6"
       id="path3002-8-1"
       style="fill:none;stroke:#000000;stroke-width:1.0509187;stroke-opacity:1"
       sodipodi:type="star" />
    <path
       sodipodi:type="star"
       style="fill:none;stroke:#000000;stroke-width:1.0509187;stroke-opacity:1"
       id="path3108"
       sodipodi:sides="6"
       sodipodi:cx="23.54812"
       sodipodi:cy="14.764475"
       sodipodi:r1="23.680693"
       sodipodi:r2="23.680693"
       sodipodi:arg1="0.52359878"
       sodipodi:arg2="1.0471976"
       inkscape:flatsided="true"
       inkscape:rounded="0"
       inkscape:randomized="0"
       d="M 44.056202,26.604821 23.54812,38.445168 3.040039,26.604821 3.0400391,2.9241284 23.548121,-8.9162178 44.056202,2.9241286 z"
       transform="matrix(0.95084467,0,0,0.95225255,-22.390605,1049.8061)" />
    <path
       sodipodi:type="star"
       style="fill:none;stroke:#000000;stroke-width:1.0509187;stroke-opacity:1"
       id="path3116"
       sodipodi:sides="6"
       sodipodi:cx="23.54812"
       sodipodi:cy="14.764475"
       sodipodi:r1="23.680693"
       sodipodi:r2="23.680693"
       sodipodi:arg1="0.52359878"
       sodipodi:arg2="1.0471976"
       inkscape:flatsided="true"
       inkscape:rounded="0"
       inkscape:randomized="0"
       d="M 44.056202,26.604821 23.54812,38.445168 3.040039,26.604821 3.0400391,2.9241284 23.548121,-8.9162178 44.056202,2.9241286 z"
       transform="matrix(0.95084467,0,0,0.95225255,17.609397,1049.8061)" />
    <g
       id="g3989">
      <path
         transform="matrix(0.95084467,0,0,0.95225255,-2.3906049,1015.2527)"
         d="M 44.056202,26.604821 23.54812,38.445168 3.040039,26.604821 3.0400391,2.9241284 23.548121,-8.9162178 44.056202,2.9241286 z"
         inkscape:randomized="0"
         inkscape:rounded="0"
         inkscape:flatsided="true"
         sodipodi:arg2="1.0471976"
         sodipodi:arg1="0.52359878"
         sodipodi:r2="23.680693"
         sodipodi:r1="23.680693"
         sodipodi:cy="14.764475"
         sodipodi:cx="23.54812"
         sodipodi:sides="6"
         id="path2985"
         style="fill:#191d1e;fill-opacity:1;stroke:#000000;stroke-width:1.0509187;stroke-opacity:1"
         sodipodi:type="star" />
      <path
         transform="matrix(0.95084467,0,0,0.95225255,37.609395,1015.2527)"
         d="M 44.056202,26.604821 23.54812,38.445168 3.040039,26.604821 3.0400391,2.9241284 23.548121,-8.9162178 44.056202,2.9241286 z"
         inkscape:randomized="0"
         inkscape:rounded="0"
         inkscape:flatsided="true"
         sodipodi:arg2="1.0471976"
         sodipodi:arg1="0.52359878"
         sodipodi:r2="23.680693"
         sodipodi:r1="23.680693"
         sodipodi:cy="14.764475"
         sodipodi:cx="23.54812"
         sodipodi:sides="6"
         id="path2985-7"
         style="fill:#191d1e;fill-opacity:1;stroke:#000000;stroke-width:1.0509187;stroke-opacity:1"
         sodipodi:type="star" />
      <path
         transform="matrix(0.95084467,0,0,0.95225255,-22.390605,980.64893)"
         d="M 44.056202,26.604821 23.54812,38.445168 3.040039,26.604821 3.0400391,2.9241284 23.548121,-8.9162178 44.056202,2.9241286 z"
         inkscape:randomized="0"
         inkscape:rounded="0"
         inkscape:flatsided="true"
         sodipodi:arg2="1.0471976"
         sodipodi:arg1="0.52359878"
         sodipodi:r2="23.680693"
         sodipodi:r1="23.680693"
         sodipodi:cy="14.764475"
         sodipodi:cx="23.54812"
         sodipodi:sides="6"
         id="path2985-45"
         style="fill:#191d1e;fill-opacity:1;stroke:#000000;stroke-width:1.0509187;stroke-opacity:1"
         sodipodi:type="star" />
      <path
         transform="matrix(0.95084467,0,0,0.95225255,17.609397,980.64893)"
         d="M 44.056202,26.604821 23.54812,38.445168 3.040039,26.604821 3.0400391,2.9241284 23.548121,-8.9162178 44.056202,2.9241286 z"
         inkscape:randomized="0"
         inkscape:rounded="0"
         inkscape:flatsided="true"
         sodipodi:arg2="1.0471976"
         sodipodi:arg1="0.52359878"
         sodipodi:r2="23.680693"
         sodipodi:r1="23.680693"
         sodipodi:cy="14.764475"
         sodipodi:cx="23.54812"
         sodipodi:sides="6"
         id="path2985-7-1"
         style="fill:#191d1e;fill-opacity:1;stroke:#000000;stroke-width:1.0509187;stroke-opacity:1"
         sodipodi:type="star" />
      <path
         transform="matrix(0.95084467,0,0,0.95225255,57.609397,980.74893)"
         d="M 44.056202,26.604821 23.54812,38.445168 3.040039,26.604821 3.0400391,2.9241284 23.548121,-8.9162178 44.056202,2.9241286 z"
         inkscape:randomized="0"
         inkscape:rounded="0"
         inkscape:flatsided="true"
         sodipodi:arg2="1.0471976"
         sodipodi:arg1="0.52359878"
         sodipodi:r2="23.680693"
         sodipodi:r1="23.680693"
         sodipodi:cy="14.764475"
         sodipodi:cx="23.54812"
         sodipodi:sides="6"
         id="path2985-4-7"
         style="fill:#191d1e;fill-opacity:1;stroke:#000000;stroke-width:1.0509187;stroke-opacity:1"
         sodipodi:type="star" />
      <path
         sodipodi:type="star"
         style="fill:#191d1e;fill-opacity:1;stroke:#000000;stroke-width:1.0509187;stroke-opacity:1"
         id="path3104"
         sodipodi:sides="6"
         sodipodi:cx="23.54812"
         sodipodi:cy="14.764475"
         sodipodi:r1="23.680693"
         sodipodi:r2="23.680693"
         sodipodi:arg1="0.52359878"
         sodipodi:arg2="1.0471976"
         inkscape:flatsided="true"
         inkscape:rounded="0"
         inkscape:randomized="0"
         d="M 44.056202,26.604821 23.54812,38.445168 3.040039,26.604821 3.0400391,2.9241284 23.548121,-8.9162178 44.056202,2.9241286 z"
         transform="matrix(0.95084467,0,0,0.95225255,-22.390605,1049.8061)" />
      <path
         sodipodi:type="star"
         style="fill:#191d1e;fill-opacity:1;stroke:#000000;stroke-width:1.0509187;stroke-opacity:1"
         id="path3112"
         sodipodi:sides="6"
         sodipodi:cx="23.54812"
         sodipodi:cy="14.764475"
         sodipodi:r1="23.680693"
         sodipodi:r2="23.680693"
         sodipodi:arg1="0.52359878"
         sodipodi:arg2="1.0471976"
         inkscape:flatsided="true"
         inkscape:rounded="0"
         inkscape:randomized="0"
         d="M 44.056202,26.604821 23.54812,38.445168 3.040039,26.604821 3.0400391,2.9241284 23.548121,-8.9162178 44.056202,2.9241286 z"
         transform="matrix(0.95084467,0,0,0.95225255,17.609397,1049.8061)" />
      <path
         sodipodi:type="star"
         style="fill:#191d1e;fill-opacity:1;stroke:#000000;stroke-width:1.0509187;stroke-opacity:1"
         id="path3120"
         sodipodi:sides="6"
         sodipodi:cx="23.54812"
         sodipodi:cy="14.764475"
         sodipodi:r1="23.680693"
         sodipodi:r2="23.680693"
         sodipodi:arg1="0.52359878"
         sodipodi:arg2="1.0471976"
         inkscape:flatsided="true"
         inkscape:rounded="0"
         inkscape:randomized="0"
         d="M 44.056202,26.604821 23.54812,38.445168 3.040039,26.604821 3.0400391,2.9241284 23.548121,-8.9162178 44.056202,2.9241286 z"
         transform="matrix(0.95084467,0,0,0.95225255,57.609397,1049.9061)" />
    </g>
    <g
       id="g3930"
       style="fill:#ffffff;fill-opacity:1;stroke:none;opacity:1">
      <g
         id="g3940"
         style="opacity:0.05">
        <path
           inkscape:connector-curvature="0"
           style="opacity:1;fill:#ffffff;fill-opacity:1;stroke:none"
           d="m 20,1006.7684 -19.5,11.2813 0,13.875 c 8.3588879,-4.6477 22.700558,-8.6185 39,-4.5938 l 0,-9.2812 -19.5,-11.2813 z"
           id="path2997" />
        <path
           style="opacity:1;fill:#ffffff;fill-opacity:1;stroke:none"
           d="m 60,1006.7684 -19.5,11.2813 0,13.875 c 8.358888,-4.6478 22.700558,-8.6185 39,-4.5938 l 0,-9.2812 -19.5,-11.2813 z"
           id="path2997-4"
           inkscape:connector-curvature="0" />
        <path
           style="opacity:1;fill:#ffffff;fill-opacity:1;stroke:none"
           d="m 0,972.16466 -19.5,11.28125 0,13.875 c 8.358888,-4.64772 22.700558,-8.61846 39,-4.59375 l 0,-9.28125 L 0,972.16466 z"
           id="path2997-5"
           inkscape:connector-curvature="0" />
        <path
           style="opacity:1;fill:#ffffff;fill-opacity:1;stroke:none"
           d="m 40.000002,972.16466 -19.5,11.28125 0,13.875 c 8.358888,-4.64772 22.700558,-8.61846 39,-4.59375 l 0,-9.28125 -19.5,-11.28125 z"
           id="path2997-4-1"
           inkscape:connector-curvature="0" />
        <path
           style="opacity:1;fill:#ffffff;fill-opacity:1;stroke:none"
           d="m 80.000002,972.26466 -19.5,11.28125 0,13.875 c 8.358888,-4.64772 22.700558,-8.61846 39,-4.59375 l 0,-9.28125 -19.5,-11.28125 z"
           id="path2997-8-6"
           inkscape:connector-curvature="0" />
        <path
           inkscape:connector-curvature="0"
           id="path3106"
           d="m 0,1041.3218 -19.5,11.2812 0,13.875 c 8.358888,-4.6477 22.700558,-8.6184 39,-4.5937 l 0,-9.2813 L 0,1041.3218 z"
           style="opacity:1;fill:#ffffff;fill-opacity:1;stroke:none" />
        <path
           inkscape:connector-curvature="0"
           id="path3114"
           d="m 40.000002,1041.3218 -19.5,11.2812 0,13.875 c 8.358888,-4.6477 22.700558,-8.6184 39,-4.5937 l 0,-9.2813 -19.5,-11.2812 z"
           style="opacity:1;fill:#ffffff;fill-opacity:1;stroke:none" />
        <path
           inkscape:connector-curvature="0"
           id="path3122"
           d="m 80.000002,1041.4218 -19.5,11.2812 0,13.875 c 8.358888,-4.6477 22.700558,-8.6184 39,-4.5937 l 0,-9.2813 -19.5,-11.2812 z"
           style="opacity:1;fill:#ffffff;fill-opacity:1;stroke:none" />
      </g>
    </g>
    <path
       sodipodi:type="star"
       style="fill:none;stroke:#000000;stroke-width:1.0509187;stroke-opacity:1"
       id="path3124"
       sodipodi:sides="6"
       sodipodi:cx="23.54812"
       sodipodi:cy="14.764475"
       sodipodi:r1="23.680693"
       sodipodi:r2="23.680693"
       sodipodi:arg1="0.52359878"
       sodipodi:arg2="1.0471976"
       inkscape:flatsided="true"
       inkscape:rounded="0"
       inkscape:randomized="0"
       d="M 44.056202,26.604821 23.54812,38.445168 3.040039,26.604821 3.0400391,2.9241284 23.548121,-8.9162178 44.056202,2.9241286 z"
       transform="matrix(0.95084467,0,0,0.95225255,57.609397,1049.9061)" />
    <g
       id="g3999"
       style="fill:none;stroke:#000000;stroke-opacity:1.0">
      <path
         sodipodi:type="star"
         style="fill:none;fill-opacity:1;stroke:#000000;stroke-width:1.05091870000000000;stroke-opacity:1.0"
         id="path4001"
         sodipodi:sides="6"
         sodipodi:cx="23.54812"
         sodipodi:cy="14.764475"
         sodipodi:r1="23.680693"
         sodipodi:r2="23.680693"
         sodipodi:arg1="0.52359878"
         sodipodi:arg2="1.0471976"
         inkscape:flatsided="true"
         inkscape:rounded="0"
         inkscape:randomized="0"
         d="M 44.056202,26.604821 23.54812,38.445168 3.040039,26.604821 3.0400391,2.9241284 23.548121,-8.9162178 44.056202,2.9241286 z"
         transform="matrix(0.95084467,0,0,0.95225255,-2.3906049,1015.2527)" />
      <path
         sodipodi:type="star"
         style="fill:none;fill-opacity:1;stroke:#000000;stroke-width:1.05091870000000000;stroke-opacity:1.0"
         id="path4003"
         sodipodi:sides="6"
         sodipodi:cx="23.54812"
         sodipodi:cy="14.764475"
         sodipodi:r1="23.680693"
         sodipodi:r2="23.680693"
         sodipodi:arg1="0.52359878"
         sodipodi:arg2="1.0471976"
         inkscape:flatsided="true"
         inkscape:rounded="0"
         inkscape:randomized="0"
         d="M 44.056202,26.604821 23.54812,38.445168 3.040039,26.604821 3.0400391,2.9241284 23.548121,-8.9162178 44.056202,2.9241286 z"
         transform="matrix(0.95084467,0,0,0.95225255,37.609395,1015.2527)" />
      <path
         sodipodi:type="star"
         style="fill:none;fill-opacity:1;stroke:#000000;stroke-width:1.05091870000000000;stroke-opacity:1.0"
         id="path4005"
         sodipodi:sides="6"
         sodipodi:cx="23.54812"
         sodipodi:cy="14.764475"
         sodipodi:r1="23.680693"
         sodipodi:r2="23.680693"
         sodipodi:arg1="0.52359878"
         sodipodi:arg2="1.0471976"
         inkscape:flatsided="true"
         inkscape:rounded="0"
         inkscape:randomized="0"
         d="M 44.056202,26.604821 23.54812,38.445168 3.040039,26.604821 3.0400391,2.9241284 23.548121,-8.9162178 44.056202,2.9241286 z"
         transform="matrix(0.95084467,0,0,0.95225255,-22.390605,980.64893)" />
      <path
         sodipodi:type="star"
         style="fill:none;fill-opacity:1;stroke:#000000;stroke-width:1.05091870000000000;stroke-opacity:1.0"
         id="path4007"
         sodipodi:sides="6"
         sodipodi:cx="23.54812"
         sodipodi:cy="14.764475"
         sodipodi:r1="23.680693"
         sodipodi:r2="23.680693"
         sodipodi:arg1="0.52359878"
         sodipodi:arg2="1.0471976"
         inkscape:flatsided="true"
         inkscape:rounded="0"
         inkscape:randomized="0"
         d="M 44.056202,26.604821 23.54812,38.445168 3.040039,26.604821 3.0400391,2.9241284 23.548121,-8.9162178 44.056202,2.9241286 z"
         transform="matrix(0.95084467,0,0,0.95225255,17.609397,980.64893)" />
      <path
         sodipodi:type="star"
         style="fill:none;fill-opacity:1;stroke:#000000;stroke-width:1.05091870000000000;stroke-opacity:1.0"
         id="path4009"
         sodipodi:sides="6"
         sodipodi:cx="23.54812"
         sodipodi:cy="14.764475"
         sodipodi:r1="23.680693"
         sodipodi:r2="23.680693"
         sodipodi:arg1="0.52359878"
         sodipodi:arg2="1.0471976"
         inkscape:flatsided="true"
         inkscape:rounded="0"
         inkscape:randomized="0"
         d="M 44.056202,26.604821 23.54812,38.445168 3.040039,26.604821 3.0400391,2.9241284 23.548121,-8.9162178 44.056202,2.9241286 z"
         transform="matrix(0.95084467,0,0,0.95225255,57.609397,980.74893)" />
      <path
         transform="matrix(0.95084467,0,0,0.95225255,-22.390605,1049.8061)"
         d="M 44.056202,26.604821 23.54812,38.445168 3.040039,26.604821 3.0400391,2.9241284 23.548121,-8.9162178 44.056202,2.9241286 z"
         inkscape:randomized="0"
         inkscape:rounded="0"
         inkscape:flatsided="true"
         sodipodi:arg2="1.0471976"
         sodipodi:arg1="0.52359878"
         sodipodi:r2="23.680693"
         sodipodi:r1="23.680693"
         sodipodi:cy="14.764475"
         sodipodi:cx="23.54812"
         sodipodi:sides="6"
         id="path4011"
         style="fill:none;fill-opacity:1;stroke:#000000;stroke-width:1.05091870000000000;stroke-opacity:1.0"
         sodipodi:type="star" />
      <path
         transform="matrix(0.95084467,0,0,0.95225255,17.609397,1049.8061)"
         d="M 44.056202,26.604821 23.54812,38.445168 3.040039,26.604821 3.0400391,2.9241284 23.548121,-8.9162178 44.056202,2.9241286 z"
         inkscape:randomized="0"
         inkscape:rounded="0"
         inkscape:flatsided="true"
         sodipodi:arg2="1.0471976"
         sodipodi:arg1="0.52359878"
         sodipodi:r2="23.680693"
         sodipodi:r1="23.680693"
         sodipodi:cy="14.764475"
         sodipodi:cx="23.54812"
         sodipodi:sides="6"
         id="path4013"
         style="fill:none;fill-opacity:1;stroke:#000000;stroke-width:1.05091870000000000;stroke-opacity:1.0"
         sodipodi:type="star" />
      <path
         transform="matrix(0.95084467,0,0,0.95225255,57.609397,1049.9061)"
         d="M 44.056202,26.604821 23.54812,38.445168 3.040039,26.604821 3.0400391,2.9241284 23.548121,-8.9162178 44.056202,2.9241286 z"
         inkscape:randomized="0"
         inkscape:rounded="0"
         inkscape:flatsided="true"
         sodipodi:arg2="1.0471976"
         sodipodi:arg1="0.52359878"
         sodipodi:r2="23.680693"
         sodipodi:r1="23.680693"
         sodipodi:cy="14.764475"
         sodipodi:cx="23.54812"
         sodipodi:sides="6"
         id="path4015"
         style="fill:none;fill-opacity:1;stroke:#000000;stroke-width:1.05091870000000000;stroke-opacity:1.0"
         sodipodi:type="star" />
    </g>
  </g>
</svg>
